Love for All and Sharing is the first step to solving all the problems of humanity.

Website I want to share. 
               
   http://www.scenetime.com
 
 
  Credit to EVERYONE for sharing and seeding back
 especially to SCENETIME.COM where i get all my 
 downloads.


 support www.scenetime.com to grow faster.

                             
                                                            
                                                   

.                 ..................................NFO:....................................*******************************************************************************
                 Her.Minor.Thing.2005.DVDRip.AC3.X264-BARC0DE
*******************************************************************************

-------------------------------------------------------------------------------
                              General Information
-------------------------------------------------------------------------------
Type.................: Movie
Name.................: Her Minor Thing
Movie Information....: http://www.imdb.com/title/tt0417751/
Genre................: Comedy | Romance
Subs.................: English
-------------------------------------------------------------------------------
                                    PLOT
-------------------------------------------------------------------------------
The life of a successful professional woman turns chaotic when her boyfriend 
accidentally reveals on TV a highly personal secret about her.

-------------------------------------------------------------------------------
                                    CAST
-------------------------------------------------------------------------------
Estella Warren	... 	Jeana
Christian Kane	... 	Paul
Michael Weatherly	... 	Tom
Rachel Dratch	... 	Caroline
Flex Alexander	... 	Marty
Kathy Griffin	... 	Maggie
Ivana Milicevic	... 	Zsa Zsa
Victoria Jackson	... 	Norma
David Fine	... 	Cab Driver
Larry Milburn	... 	Randy
Keary Ann Bixby	... 	Wendy Sagen
Rick Kleber	... 	Carl

-------------------------------------------------------------------------------
                                    MEDiA iNFO
-------------------------------------------------------------------------------

General
Complete name                    : Her.Minor.Thing.2005.DVDRip.AC3.X264-BARC0DE.mkv
Format                           : Matroska
File size                        : 1.20 GiB
Duration                         : 1h 31mn
Overall bit rate                 : 1 889 Kbps

Video
ID                               : 1
Format                           : AVC
Format/Info                      : Advanced Video Codec
Format profile                   : High@L3.0
Format settings, CABAC           : Yes
Format settings, ReFrames        : 3 frames
Muxing mode                      : Container profile=Unknown@3.0
Codec ID                         : V_MPEG4/ISO/AVC
Duration                         : 1h 31mn
Bit rate                         : 1 595 Kbps
Nominal bit rate                 : 2 033 Kbps
Width                            : 720 pixels
Height                           : 400 pixels
Display aspect ratio             : 16:9
Frame rate                       : 29.970 fps
Color space                      : YUV
Chroma subsampling               : 4:2:0
Bit depth                        : 8 bits
Scan type                        : Progressive
Bits/(Pixel*Frame)               : 0.185
Stream size                      : 1.02 GiB (84%)
Writing library                  : x264 core 79


Audio
ID                               : 2
Format                           : AC-3
Format/Info                      : Audio Coding 3
Mode extension                   : CM (complete main)
Codec ID                         : A_AC3
Duration                         : 1h 31mn
Bit rate mode                    : Constant
Bit rate                         : 256 Kbps
Channel(s)                       : 6 channels
Channel positions                : Front: L C R, Side: L R, LFE
Sampling rate                    : 48.0 KHz
Stream size                      : 167 MiB (14%)
Language                         : English

Text
ID                               : 3
Format                           : VobSub
Codec ID                         : S_VOBSUB
Codec ID/Info                    : The same subtitle format used on DVDs
Language                         : English

Menu
00:00:00.000                     : Chapter 1
00:02:28.273                     : Chapter 2
00:10:33.883                     : Chapter 3
00:21:02.177                     : Chapter 4
00:28:05.642                     : Chapter 5
00:36:31.439                     : Chapter 6
00:45:06.620                     : Chapter 7
00:51:03.060                     : Chapter 8
01:00:16.446                     : Chapter 9
01:09:26.162                     : Chapter 10
01:22:17.098                     : Chapter 11
01:27:50.265                     : Chapter 12
01:31:12.467                     : Chapter 13